<svg width="20" height="21" viewBox="0 0 20 21" fill="none" xmlns="http://www.w3.org/2000/svg">
<path d="M14.707 7.79297C15.098 8.18397 15.098 8.81603 14.707 9.20703L9.707 14.207C9.512 14.402 9.256 14.5 9 14.5C8.744 14.5 8.488 14.402 8.293 14.207L5.293 11.207C4.902 10.816 4.902 10.184 5.293 9.79297C5.684 9.40197 6.316 9.40197 6.707 9.79297L9 12.0861L13.293 7.79297C13.684 7.40197 14.316 7.40197 14.707 7.79297ZM20 10.5C20 16.014 15.514 20.5 10 20.5C4.486 20.5 0 16.014 0 10.5C0 4.986 4.486 0.5 10 0.5C15.514 0.5 20 4.986 20 10.5ZM18 10.5C18 6.089 14.411 2.5 10 2.5C5.589 2.5 2 6.089 2 10.5C2 14.911 5.589 18.5 10 18.5C14.411 18.5 18 14.911 18 10.5Z" fill="white" fill-opacity="0.8"/>
</svg>
