<svg width="78" height="22" viewBox="0 0 78 22" fill="none" xmlns="http://www.w3.org/2000/svg">
<g opacity="0.5">
<path opacity="0.5" d="M43.4429 2.30746L38.5825 12.8077H38.09V0.0442579H31.1465V21.5109H36.9047C38.4662 21.5109 39.8565 20.6109 40.5202 19.2186L45.4113 8.74592H45.9022V21.5109H52.8473V0.0442579H47.0019C45.4985 0.0442579 44.0807 0.942791 43.4429 2.30746ZM17.6341 2.85792L14.7695 12.8093H14.2771L11.3834 2.85792C11.1451 2.04353 10.6493 1.3288 9.97079 0.821344C9.29223 0.313887 8.4676 0.0411708 7.62106 0.0442579H0.764709V21.5109H7.70824V8.74746H8.20071L12.194 21.5109H16.8235L20.8153 8.74746H21.3078V21.5109H28.2528V0.0442579H21.3949C19.6591 0.0442579 18.096 1.17586 17.6326 2.85792H17.6341ZM55.7409 9.61686V21.5109H62.6845V14.5496H70.1511C71.6836 14.554 73.1798 14.0821 74.4337 13.1987C75.6876 12.3153 76.6375 11.0639 77.1527 9.61686H55.7409ZM69.9476 0.0427246H54.496C55.4519 5.14872 59.9071 8.74746 65.26 8.74746H77.2689C77.3626 8.24996 77.4107 7.74493 77.4127 7.23866C77.4127 3.08946 74.0862 0.0442579 69.9492 0.0442579L69.9476 0.0427246Z" fill="white"/>
</g>
</svg>
